<svg version="1.1" xmlns="http://www.w3.org/2000/svg" viewBox="0 0 430.2978049699916 319.88413298241795" width="860.5956099399832" height="639.7682659648359">
  <!-- svg-source:excalidraw -->
  
  <defs>
    <style class="style-fonts">
      @font-face {
        font-family: "Virgil";
        src: url("https://excalidraw.com/Virgil.woff2");
      }
      @font-face {
        font-family: "Cascadia";
        src: url("https://excalidraw.com/Cascadia.woff2");
      }
    </style>
  </defs>
  <g stroke-linecap="round" transform="translate(237.4117758446141 179.44140625) rotate(0 87.048828125 61.56640625)"><path d="M-0.4 1.68 L173.87 -1.27 L175.6 124.71 L0.43 121.76" stroke="none" stroke-width="0" fill="#ffec99"></path><path d="M-1.27 -0.65 C66.48 0.06, 137.19 -0.57, 173.29 -1.18 M-0.53 -0.49 C46.33 0.43, 92.96 1.09, 173.8 -0.07 M173.31 -1.68 C175.51 39.84, 175.32 76.53, 174.85 124.31 M174.41 0.58 C173.22 31.64, 174.65 65.36, 174.55 122.43 M174.44 121.75 C108.6 121.19, 42.92 122.38, 0.18 125.08 M174.22 123.94 C122.71 122.09, 70.92 123.35, -0.94 122.81 M-1.22 122.74 C1.81 91.21, 1.43 60.19, -1.29 -1.43 M-0.83 123.01 C0.29 98.18, 1 71.13, -0.66 -0.38" stroke="transparent" stroke-width="1" fill="none"></path></g><g stroke-linecap="round" transform="translate(241.8336508446141 56.3203125) rotate(0 85.04296875 57.099609375)"><path d="M-0.09 0.51 L169.98 0.25 L171.7 114.3 L-1.89 113.59" stroke="none" stroke-width="0" fill="#ffc9c9"></path><path d="M-0.22 1.17 C54.7 1.11, 107.8 -0.51, 171.08 0.54 M-0.37 0.36 C38.84 -0.33, 75.69 0.53, 170.24 -0.11 M171.76 0.91 C170.89 30.44, 171.74 56.19, 168.94 114.47 M169.45 -0.33 C170.03 45, 171.37 89.3, 169.68 113.61 M169.03 113.21 C123.52 113.68, 77.56 115.02, -0.6 114.06 M169.69 113.36 C118.05 114.25, 65.53 113.62, 0.38 114.79 M0.62 115.36 C-2.1 82.41, 0.76 54.81, 0.91 -1.42 M0.17 113.51 C-0.17 71.03, -0.69 29.24, 0.09 0.97" stroke="transparent" stroke-width="1" fill="none"></path></g><g stroke-linecap="round" transform="translate(55.99380709461411 57.26171875) rotate(0 86.8671875 56.765625)"><path d="M-0.13 -1.2 L171.88 -1.05 L174.35 113.1 L-1.41 113.48" stroke="none" stroke-width="0" fill="#fab005"></path><path d="M0.06 -0.83 C57.83 -0.85, 115.8 0.14, 175.03 1.65 M-0.24 -0.29 C57.08 1.55, 115.62 2.21, 173.34 -0.59 M175.64 0.91 C172.18 25.64, 175.03 50.82, 174.8 113.56 M174.23 -0.83 C174.01 34.81, 173.16 69.56, 173.51 114.28 M174.42 114.77 C116.07 113, 57.43 113.36, -0.61 112.93 M174.44 113.69 C107.02 114.29, 40.96 114.64, 0.96 114.29 M-1.38 115.4 C-2.77 79.53, -1.8 44.56, 0.24 -1.42 M0.46 113.78 C1.18 78.24, 1.41 42.08, 0.77 0.34" stroke="transparent" stroke-width="1" fill="none"></path></g><g stroke-linecap="round" transform="translate(49.63443209461411 47.44140625) rotate(0 183.921875 131.05078125)"><path d="M1.03 0.99 C88.84 1.68, 179.02 2.17, 367.05 -0.4 M-0.13 0.41 C131.68 -1.53, 263.55 -1.57, 367.7 0.58 M366.64 0.54 C367.47 65.55, 365.39 131.09, 368.1 263.32 M368.04 -0.24 C369.83 53.96, 370 107.01, 368.28 261.48 M367.45 261.12 C231.96 261.71, 98.27 260.9, 0.89 263.34 M368.04 261.51 C245.94 261.2, 125.23 261.85, 0.11 262.15 M1.18 260.77 C2.34 179.39, 1.07 94.32, 0.26 0.19 M0.17 262.89 C1.73 171.79, 1.56 81.47, 0.23 0.52" stroke="#1e1e1e" stroke-width="1" fill="none"></path></g><g transform="translate(-19.530778269515906 86.515625) rotate(270.553213971837 42.439964294433594 12.5)"><text x="0" y="0" font-family="Virgil, Segoe UI Emoji" font-size="20px" fill="#1e1e1e" text-anchor="start" style="white-space: pre;" direction="ltr" dominant-baseline="text-before-edge">Frequent</text></g><g transform="translate(267.5694678001805 10) rotate(0 48.3299560546875 12.5)"><text x="0" y="0" font-family="Virgil, Segoe UI Emoji" font-size="20px" fill="#1e1e1e" text-anchor="start" style="white-space: pre;" direction="ltr" dominant-baseline="text-before-edge">High value</text></g><g transform="translate(85.22963930896958 15.546875) rotate(0 63.69994354248047 12.5)"><text x="0" y="0" font-family="Virgil, Segoe UI Emoji" font-size="20px" fill="#1e1e1e" text-anchor="start" style="white-space: pre;" direction="ltr" dominant-baseline="text-before-edge">Medium value</text></g><g transform="translate(-25.536393503890906 234.2483200159906) rotate(270.14355017444893 51.679954528808594 12.5)"><text x="0" y="0" font-family="Virgil, Segoe UI Emoji" font-size="20px" fill="#1e1e1e" text-anchor="start" style="white-space: pre;" direction="ltr" dominant-baseline="text-before-edge">Infrequent</text></g><g stroke-linecap="round"><g transform="translate(51.63052584461411 177.75) rotate(0 184.30352551806715 -1.2362294690683484)"><path d="M0.92 -0.12 C62.26 -0.2, 307.12 -0.6, 368.67 -0.79 M-0.06 -1.23 C61.03 -1.6, 305.77 -2.01, 367.43 -2.35" stroke="#1e1e1e" stroke-width="1" fill="none"></path></g></g><mask></mask><g stroke-linecap="round"><g transform="translate(235.8649008446141 53.71875) rotate(0 -1.1463257323484868 127.72864346019924)"><path d="M0.96 -0.71 C0.71 41.88, -1.92 213.26, -2.46 256.17 M0.01 1.53 C-0.29 43.69, -2.78 211.97, -3.26 254.19" stroke="#1e1e1e" stroke-width="1" fill="none"></path></g></g><mask></mask><g transform="translate(261.9820883446141 75.28125) rotate(0 61.789947509765625 37.5)"><text x="0" y="0" font-family="Virgil, Segoe UI Emoji" font-size="20px" fill="#1e1e1e" text-anchor="start" style="white-space: pre;" direction="ltr" dominant-baseline="text-before-edge"> TODO #1</text><text x="0" y="25" font-family="Virgil, Segoe UI Emoji" font-size="20px" fill="#1e1e1e" text-anchor="start" style="white-space: pre;" direction="ltr" dominant-baseline="text-before-edge">e.g., breaking</text><text x="0" y="50" font-family="Virgil, Segoe UI Emoji" font-size="20px" fill="#1e1e1e" text-anchor="start" style="white-space: pre;" direction="ltr" dominant-baseline="text-before-edge">changes</text></g><g transform="translate(65.3737127952977 78.26047844657754) rotate(0 78.6934814453125 34.52077155342248)"><text x="0" y="0" font-family="Virgil, Segoe UI Emoji" font-size="18.411078161825316px" fill="#1e1e1e" text-anchor="start" style="white-space: pre;" direction="ltr" dominant-baseline="text-before-edge">   TODO #2</text><text x="0" y="23.013847702281645" font-family="Virgil, Segoe UI Emoji" font-size="18.411078161825316px" fill="#1e1e1e" text-anchor="start" style="white-space: pre;" direction="ltr" dominant-baseline="text-before-edge">e.g., robotics</text><text x="0" y="46.02769540456329" font-family="Virgil, Segoe UI Emoji" font-size="18.411078161825316px" fill="#1e1e1e" text-anchor="start" style="white-space: pre;" direction="ltr" dominant-baseline="text-before-edge">algorithms failure</text></g><g transform="translate(253.3229315452977 203.84765625) rotate(0 77.1999282836914 37.5)"><text x="0" y="0" font-family="Virgil, Segoe UI Emoji" font-size="20px" fill="#1e1e1e" text-anchor="start" style="white-space: pre;" direction="ltr" dominant-baseline="text-before-edge">  TODO #3</text><text x="0" y="25" font-family="Virgil, Segoe UI Emoji" font-size="20px" fill="#1e1e1e" text-anchor="start" style="white-space: pre;" direction="ltr" dominant-baseline="text-before-edge">e.g., unexpected</text><text x="0" y="50" font-family="Virgil, Segoe UI Emoji" font-size="20px" fill="#1e1e1e" text-anchor="start" style="white-space: pre;" direction="ltr" dominant-baseline="text-before-edge">peak load</text></g><g transform="translate(93.0612127952977 205.92578125) rotate(0 42.549964904785156 12.5)"><text x="0" y="0" font-family="Virgil, Segoe UI Emoji" font-size="20px" fill="#1e1e1e" text-anchor="start" style="white-space: pre;" direction="ltr" dominant-baseline="text-before-edge">Don't do</text></g></svg>